<?xml version="1.0" encoding="UTF-8"?>
<svg id="Livello_1" data-name="Livello 1" xmlns="http://www.w3.org/2000/svg" version="1.1" viewBox="0 0 81 33.43">
  <defs>
    <style>
      .cls-1 {
        fill: #000;
        stroke-width: 0px;
      }

      .cls-2 {
        fill: none;
        stroke: #000;
        stroke-width: 2px;
      }
    </style>
  </defs>
  <path class="cls-1" d="M40.94,31.5c-.49,0-.89-.15-1.21-.45-.31-.3-.47-.68-.47-1.14s.16-.84.48-1.15c.32-.3.72-.46,1.21-.46s.96.14,1.45.42v-.65c-.54-.23-1.04-.35-1.48-.35-.64,0-1.19.21-1.62.63-.44.42-.66.94-.66,1.55,0,.39.1.75.29,1.08.19.33.45.59.78.78.33.19.73.28,1.2.28.58,0,1.09-.12,1.54-.36v-.67c-.49.31-.99.47-1.5.47h0ZM43.38,29.62c-.28.27-.43.61-.43,1.02s.14.74.42,1.01c.28.27.63.4,1.05.4s.79-.13,1.07-.4c.28-.27.43-.6.43-1s-.14-.76-.42-1.03c-.28-.27-.63-.41-1.06-.41-.43,0-.78.14-1.07.41h0ZM45.09,29.97c.18.17.27.39.27.66s-.09.48-.26.65c-.17.17-.39.26-.66.26s-.5-.08-.67-.25c-.17-.17-.26-.39-.26-.65s.08-.49.25-.66c.17-.17.39-.26.65-.26.27,0,.5.09.68.26h0ZM46.52,29.22v2.78h.56v-1.99c.18-.26.4-.39.66-.39.2,0,.35.06.44.18.09.12.13.33.13.61v1.59h.55v-1.59c0-.34-.04-.59-.12-.74-.08-.16-.19-.28-.34-.37-.15-.09-.31-.13-.48-.13-.31,0-.59.14-.84.41v-.35h-.56ZM49.24,29.72h.48v1.23c0,.25.01.42.03.51.02.09.05.16.09.22.03.06.08.11.13.15.17.15.38.22.63.22s.48-.06.69-.18v-.52c-.22.13-.43.2-.63.2-.26,0-.4-.16-.4-.48v-1.36h.88v-.5h-.88v-.58l-1.04,1.02v.06h0ZM54.07,30.59c0-.43-.11-.78-.33-1.04s-.52-.39-.88-.39-.7.13-.93.4c-.24.27-.36.61-.36,1.03,0,.28.06.53.17.75s.27.39.46.51c.19.13.44.19.74.19.22,0,.42-.02.59-.07.17-.05.33-.13.5-.24v-.54c-.31.23-.64.34-1,.34-.26,0-.47-.08-.64-.24-.17-.16-.25-.37-.27-.64h1.96v-.07h0ZM52.37,29.82c.13-.12.29-.18.49-.18s.36.06.47.18c.12.12.18.29.2.51h-1.4c.04-.22.12-.39.25-.51h0ZM57.58,29.64c.18,0,.31.06.41.18.09.12.14.3.14.53v1.65h.55v-1.64c0-.41-.09-.71-.26-.9-.18-.2-.4-.3-.67-.3-.32,0-.63.17-.92.51-.19-.34-.47-.5-.82-.5-.27,0-.54.14-.82.42v-.37h-.55v2.78h.55v-2.02c.12-.13.23-.23.33-.28.1-.05.2-.08.32-.08.21,0,.35.06.43.18.08.12.12.34.12.65v1.55h.55v-2.02c.2-.23.41-.35.64-.35h0ZM59.97,33.43v-1.49c.22.08.41.12.59.12.4,0,.73-.13.99-.4.26-.27.39-.61.39-1.03,0-.44-.14-.79-.41-1.03-.28-.25-.66-.37-1.15-.37h-.96v4.2h.56ZM60.95,29.83c.13.06.24.17.32.3.08.14.12.3.12.48,0,.28-.08.51-.25.69-.16.18-.38.27-.63.27-.18,0-.36-.04-.53-.13v-1.71h.39c.26,0,.45.03.59.1h0ZM62.81,29.62c-.28.27-.43.61-.43,1.02s.14.74.42,1.01c.28.27.63.4,1.05.4s.79-.13,1.07-.4c.28-.27.43-.6.43-1s-.14-.76-.42-1.03c-.28-.27-.63-.41-1.06-.41-.43,0-.78.14-1.07.41h0ZM64.52,29.97c.18.17.27.39.27.66s-.09.48-.26.65c-.17.17-.39.26-.66.26s-.5-.08-.67-.25c-.17-.17-.26-.39-.26-.65s.08-.49.25-.66c.17-.17.39-.26.65-.26.27,0,.5.09.68.26h0ZM66,29.22v2.78h.55v-1.45c0-.23.07-.43.2-.6.13-.17.28-.25.46-.25.16,0,.34.09.53.27l.29-.48c-.22-.21-.44-.31-.65-.31-.27,0-.53.22-.8.64l-.03.05v-.64h-.55ZM70.15,29.86c-.01-.08-.04-.17-.09-.25-.05-.08-.1-.15-.16-.2-.18-.16-.42-.24-.73-.24-.4,0-.71.13-.92.38v.6c.29-.31.58-.47.88-.47.34,0,.5.17.5.5v.15l-.7.24c-.23.08-.41.19-.54.33-.13.14-.19.29-.19.47,0,.19.07.36.19.48.13.13.29.19.48.19.26,0,.51-.09.75-.27.04.19.18.28.42.28.08,0,.16-.01.24-.04.08-.03.18-.08.3-.17v-.34c-.14.1-.25.15-.31.15s-.1-.05-.1-.14v-1.18c0-.24,0-.39-.02-.48h0ZM69.14,31.67c-.12,0-.21-.04-.29-.11-.07-.07-.11-.17-.11-.28s.04-.21.12-.28c.08-.07.21-.15.4-.22l.37-.14v.83c-.15.14-.31.22-.49.22h0ZM71.05,29.22v2.78h.56v-1.99c.18-.26.4-.39.66-.39.2,0,.35.06.44.18.09.12.13.33.13.61v1.59h.55v-1.59c0-.34-.04-.59-.12-.74-.08-.16-.19-.28-.34-.37-.15-.09-.31-.13-.48-.13-.31,0-.59.14-.84.41v-.35h-.56ZM76.53,30.59c0-.43-.11-.78-.33-1.04-.22-.26-.52-.39-.89-.39s-.69.13-.93.4c-.24.27-.36.61-.36,1.03,0,.28.06.53.17.75.11.22.27.39.45.51.19.13.44.19.75.19.22,0,.42-.02.59-.07.17-.05.33-.13.5-.24v-.54c-.31.23-.64.34-1.01.34-.26,0-.47-.08-.64-.24-.16-.16-.25-.37-.27-.64h1.96v-.07h0ZM74.83,29.82c.13-.12.29-.18.49-.18s.36.06.47.18c.12.12.18.29.2.51h-1.4c.04-.22.12-.39.25-.51h0ZM78.86,29.86c-.01-.08-.04-.17-.09-.25-.05-.08-.1-.15-.16-.2-.18-.16-.42-.24-.72-.24-.4,0-.71.13-.92.38v.6c.28-.31.58-.47.88-.47.34,0,.5.17.5.5v.15l-.71.24c-.23.08-.41.19-.54.33-.12.14-.19.29-.19.47,0,.19.06.36.19.48.13.13.29.19.48.19.27,0,.51-.09.75-.27.04.19.18.28.42.28.08,0,.16-.01.24-.04.08-.03.18-.08.3-.17v-.34c-.14.1-.25.15-.31.15s-.1-.05-.1-.14v-1.18c0-.24,0-.39-.02-.48h0ZM77.85,31.67c-.12,0-.21-.04-.29-.11-.07-.07-.11-.17-.11-.28s.04-.21.12-.28c.08-.07.21-.15.4-.22l.37-.14v.83c-.15.14-.31.22-.49.22h0Z"/>
  <path class="cls-1" d="M38.8,25.32h2.46v-.54h-1.85v-1.31h1.73v-.54h-1.73v-1.29h1.79v-.54h-2.4v4.22h0ZM41.8,25.17c.12.06.27.11.47.15.2.04.39.06.57.06.45,0,.81-.13,1.07-.4.27-.27.4-.62.4-1.07,0-.42-.11-.76-.33-1.02-.22-.27-.51-.4-.87-.4-.27,0-.53.09-.76.26v-1.64h-.55v4.07h0ZM42.97,23c.23,0,.42.09.56.26.14.17.22.4.22.67s-.08.5-.23.67c-.16.17-.36.26-.6.26-.2,0-.39-.03-.58-.08v-1.51c.21-.18.42-.27.63-.27h0ZM44.96,22.54v2.78h.55v-1.46c0-.23.06-.43.19-.6.13-.17.28-.25.46-.25.16,0,.34.09.53.27l.29-.48c-.23-.21-.44-.31-.65-.31-.27,0-.53.21-.8.64l-.03.05v-.64h-.55ZM49.1,23.18c-.01-.08-.04-.17-.09-.25-.05-.08-.1-.15-.16-.2-.18-.16-.42-.24-.72-.24-.4,0-.71.13-.92.38v.6c.28-.31.58-.47.88-.47.34,0,.5.17.5.5v.15l-.7.24c-.23.08-.41.19-.54.33-.13.14-.19.3-.19.47,0,.19.06.35.19.48.13.13.29.19.48.19.27,0,.51-.09.75-.27.04.19.18.28.42.28.08,0,.16-.01.24-.04.07-.03.18-.08.3-.17v-.34c-.14.1-.25.15-.31.15s-.1-.05-.1-.14v-1.19c0-.23,0-.39-.02-.48h0ZM48.1,24.99c-.12,0-.21-.04-.29-.11-.07-.07-.11-.17-.11-.28s.04-.21.12-.28c.08-.08.21-.15.4-.22l.37-.14v.83c-.15.14-.31.21-.49.21h0ZM50.08,21.47c-.06.07-.1.14-.1.23s.03.16.1.23c.07.07.14.1.22.1.09,0,.17-.03.23-.1s.1-.14.1-.23-.03-.17-.1-.23-.14-.09-.23-.09c-.09,0-.16.03-.22.1h0ZM50.03,25.33h.55v-2.78h-.55v2.78h0ZM52.74,24.86c-.29,0-.52-.08-.7-.25-.17-.17-.26-.39-.26-.68s.08-.49.24-.67c.16-.17.36-.26.61-.26s.5.09.77.27v-.59c-.17-.07-.31-.13-.42-.15-.11-.03-.24-.04-.39-.04-.41,0-.74.13-1,.4-.25.27-.38.62-.38,1.06s.13.78.39,1.04c.26.26.61.39,1.04.39.26,0,.53-.05.81-.15v-.54c-.28.12-.52.18-.73.18h0ZM55.82,23.18c-.01-.08-.04-.17-.09-.25-.05-.08-.1-.15-.16-.2-.18-.16-.42-.24-.72-.24-.4,0-.71.13-.92.38v.6c.29-.31.58-.47.88-.47.34,0,.5.17.5.5v.15l-.7.24c-.23.08-.41.19-.54.33-.13.14-.19.3-.19.47,0,.19.07.35.19.48.13.13.29.19.48.19.26,0,.51-.09.75-.27.04.19.18.28.42.28.08,0,.16-.01.24-.04s.18-.08.3-.17v-.34c-.14.1-.24.15-.31.15-.06,0-.1-.05-.1-.14v-1.19c0-.23,0-.39-.02-.48h0ZM54.81,24.99c-.12,0-.21-.04-.29-.11-.07-.07-.11-.17-.11-.28s.04-.21.12-.28c.08-.08.21-.15.4-.22l.37-.14v.83c-.15.14-.31.21-.49.21h0Z"/>
  <path class="cls-1" d="M40.14,18.64c.38,0,.63-.01.76-.03.13-.02.28-.06.44-.13.27-.1.51-.25.72-.46.2-.2.36-.42.47-.68s.16-.53.16-.81c0-.4-.1-.76-.3-1.1-.2-.34-.46-.59-.8-.76-.33-.17-.79-.26-1.36-.26h-1.43v4.22h1.34ZM40.8,14.99c.13.02.27.07.42.14.15.07.27.16.39.26.31.29.46.66.46,1.11s-.15.84-.45,1.15c-.09.09-.2.17-.31.23-.11.06-.25.12-.42.16-.17.04-.4.06-.71.06h-.77v-3.14h.76c.29,0,.5.01.63.03h0ZM43.63,16.26c-.28.27-.42.61-.42,1.02s.14.74.42,1.01c.28.27.63.41,1.05.41s.79-.13,1.07-.4c.28-.27.43-.6.43-1s-.14-.76-.42-1.03c-.28-.27-.63-.41-1.06-.41-.43,0-.78.13-1.07.41h0ZM45.35,16.61c.18.17.27.39.27.66s-.09.49-.26.66c-.17.17-.39.26-.66.26s-.5-.09-.67-.25c-.17-.17-.26-.39-.26-.65s.09-.49.26-.66.39-.26.65-.26c.27,0,.5.09.68.26h0ZM48.15,18.18c-.29,0-.53-.08-.7-.25-.17-.17-.26-.39-.26-.68s.08-.49.24-.67c.16-.17.36-.26.61-.26s.5.09.77.27v-.59c-.17-.08-.31-.13-.42-.15-.11-.03-.24-.04-.39-.04-.41,0-.74.13-1,.4-.25.27-.38.62-.38,1.06s.13.78.39,1.04c.26.26.61.39,1.04.39.26,0,.53-.05.81-.16v-.54c-.28.12-.52.18-.73.18h0ZM51.83,18.64v-2.78h-.55v1.99c-.18.26-.41.39-.67.39-.21,0-.36-.06-.44-.18-.08-.11-.13-.32-.13-.61v-1.59h-.55v1.59c0,.35.04.6.11.75.07.15.19.27.33.36.15.09.31.13.49.13.15,0,.3-.04.45-.11.15-.07.28-.17.4-.3v.36h.55ZM55.53,16.28c.18,0,.31.06.41.19.1.12.14.3.14.53v1.65h.55v-1.64c0-.41-.09-.71-.26-.9s-.4-.3-.67-.3c-.32,0-.63.17-.92.51-.19-.33-.47-.5-.82-.5-.27,0-.54.14-.82.42v-.37h-.55v2.78h.55v-2.02c.12-.13.23-.23.33-.28.1-.05.2-.08.32-.08.21,0,.35.06.43.18.08.12.12.34.12.65v1.55h.55v-2.02c.2-.23.41-.34.64-.34h0ZM59.76,17.23c0-.43-.11-.78-.33-1.04-.22-.26-.51-.39-.88-.39s-.7.13-.93.4c-.24.27-.36.61-.36,1.03,0,.28.06.53.17.75.11.21.27.39.45.51.19.13.44.19.75.19.22,0,.42-.02.59-.07.17-.05.33-.13.5-.24v-.54c-.31.23-.64.34-1.01.34-.26,0-.47-.08-.64-.24-.16-.16-.25-.37-.27-.64h1.96v-.07h0ZM58.06,16.46c.13-.12.29-.18.49-.18s.36.06.47.18.18.29.19.51h-1.4c.04-.22.12-.39.25-.51h0ZM60.34,15.86v2.78h.56v-1.99c.18-.26.4-.39.66-.39.2,0,.35.06.43.18.09.12.13.33.13.61v1.59h.55v-1.59c0-.34-.04-.59-.12-.74-.08-.16-.19-.28-.34-.37-.15-.09-.31-.13-.48-.13-.31,0-.59.14-.84.41v-.35h-.56ZM63.06,16.36h.48v1.23c0,.25.01.42.04.51.02.09.05.16.09.22.04.06.08.1.13.15.17.15.38.22.63.22s.48-.06.69-.18v-.51c-.22.13-.43.2-.63.2-.26,0-.4-.16-.4-.48v-1.36h.88v-.5h-.88v-.58l-1.04,1.02v.06h0ZM67.25,16.49c-.01-.08-.04-.17-.09-.25-.05-.08-.1-.15-.16-.2-.18-.16-.42-.24-.73-.24-.4,0-.71.13-.92.38v.6c.28-.31.58-.47.88-.47.34,0,.5.17.5.5v.15l-.71.24c-.23.08-.41.19-.54.33-.13.14-.19.3-.19.47,0,.19.07.35.2.48s.29.19.48.19c.26,0,.51-.09.75-.27.04.18.18.28.42.28.08,0,.16-.02.24-.04.08-.03.18-.08.3-.17v-.33c-.14.1-.24.15-.31.15s-.1-.05-.1-.14v-1.18c0-.23,0-.39-.02-.48h0ZM66.24,18.31c-.12,0-.21-.04-.29-.11-.07-.07-.11-.17-.11-.28s.04-.21.12-.28c.08-.08.21-.15.4-.23l.37-.14v.83c-.15.14-.31.22-.49.22h0ZM67.9,16.37h1.4l-1.46,2.27h2.44v-.51h-1.47l1.47-2.27h-2.38v.51h0ZM70.81,14.79c-.06.07-.1.14-.1.23s.03.16.1.23.14.1.22.1c.09,0,.17-.03.23-.1.06-.06.1-.14.1-.23s-.03-.17-.1-.23c-.06-.06-.14-.09-.23-.09-.08,0-.16.03-.22.1h0ZM70.76,18.64h.55v-2.78h-.55v2.78h0ZM72.37,16.26c-.28.27-.43.61-.43,1.02s.14.74.42,1.01c.28.27.63.41,1.05.41s.79-.13,1.07-.4c.28-.27.43-.6.43-1s-.14-.76-.42-1.03c-.28-.27-.63-.41-1.06-.41-.43,0-.78.13-1.07.41h0ZM74.08,16.61c.18.17.27.39.27.66s-.09.49-.26.66c-.17.17-.39.26-.66.26s-.5-.09-.67-.25c-.17-.17-.26-.39-.26-.65s.09-.49.25-.66.39-.26.65-.26c.27,0,.5.09.68.26h0ZM75.51,15.86v2.78h.56v-1.99c.18-.26.4-.39.66-.39.2,0,.35.06.44.18.09.12.13.33.13.61v1.59h.55v-1.59c0-.34-.04-.59-.12-.74-.08-.16-.19-.28-.34-.37-.15-.09-.31-.13-.48-.13-.31,0-.59.14-.84.41v-.35h-.56ZM81,17.23c0-.43-.11-.78-.33-1.04-.22-.26-.51-.39-.88-.39s-.69.13-.93.4c-.24.27-.36.61-.36,1.03,0,.28.06.53.17.75.11.21.27.39.45.51.19.13.44.19.75.19.22,0,.42-.02.58-.07.17-.05.33-.13.5-.24v-.54c-.31.23-.64.34-1.01.34-.26,0-.47-.08-.64-.24-.16-.16-.25-.37-.27-.64h1.96v-.07h0ZM79.3,16.46c.13-.12.29-.18.49-.18s.36.06.47.18.18.29.2.51h-1.4c.04-.22.12-.39.24-.51h0Z"/>
  <path class="cls-1" d="M40.94,11.45c-.49,0-.89-.15-1.21-.45-.31-.3-.47-.68-.47-1.14s.16-.84.48-1.15c.32-.31.72-.46,1.21-.46s.96.14,1.45.42v-.65c-.54-.23-1.04-.35-1.48-.35-.64,0-1.19.21-1.62.63-.44.42-.66.94-.66,1.55,0,.39.1.75.29,1.08.19.33.45.59.78.78.33.19.73.28,1.2.28.58,0,1.09-.12,1.54-.36v-.67c-.49.31-.99.47-1.5.47h0ZM45.48,10.55c0-.43-.11-.78-.33-1.04s-.52-.39-.88-.39-.7.13-.93.4c-.24.27-.36.61-.36,1.03,0,.28.06.53.17.75.11.21.27.39.45.51.19.13.44.19.74.19.22,0,.42-.02.59-.07.17-.05.33-.13.5-.24v-.54c-.31.23-.64.34-1,.34-.26,0-.47-.08-.64-.24-.17-.16-.25-.37-.27-.64h1.96v-.07h0ZM43.78,9.78c.13-.12.29-.18.49-.18s.36.06.47.18.18.29.2.51h-1.4c.04-.22.12-.39.25-.51h0ZM46.07,9.18v2.78h.56v-1.99c.18-.26.4-.39.66-.39.2,0,.35.06.44.18.09.12.13.33.13.61v1.59h.55v-1.59c0-.34-.04-.59-.12-.74-.08-.16-.19-.28-.34-.37-.15-.09-.31-.14-.48-.14-.31,0-.59.14-.84.41v-.35h-.56ZM48.79,9.67h.48v1.23c0,.25.01.42.04.51.02.09.05.16.09.22.04.06.08.11.13.15.17.15.38.22.63.22s.48-.06.69-.18v-.52c-.22.13-.43.2-.63.2-.27,0-.4-.16-.4-.48v-1.36h.88v-.5h-.88v-.58l-1.04,1.02v.06h0ZM51.28,9.18v2.78h.55v-1.46c0-.23.07-.43.19-.6.13-.17.28-.25.46-.25.16,0,.34.09.53.27l.29-.49c-.23-.21-.44-.31-.65-.31-.27,0-.53.21-.8.64l-.03.05v-.64h-.55ZM53.81,9.58c-.28.27-.42.61-.42,1.02s.14.74.42,1.01c.28.27.63.4,1.05.4s.79-.13,1.08-.4c.28-.27.43-.6.43-1s-.14-.76-.42-1.03c-.28-.27-.63-.41-1.06-.41-.43,0-.78.14-1.07.41h0ZM55.52,9.93c.18.17.27.39.27.66s-.09.49-.26.66c-.17.17-.39.26-.66.26s-.5-.08-.67-.25c-.17-.17-.26-.39-.26-.65s.08-.49.26-.66c.17-.17.39-.26.65-.26s.5.09.68.26h0ZM60.54,9.24c-.22-.08-.42-.12-.61-.12-.4,0-.73.13-.98.4-.26.26-.39.6-.39,1.01,0,.44.12.79.37,1.05.24.26.57.39.99.39h1.18v-4.23h-.55v1.5h0ZM60.12,11.49c-.25,0-.42-.02-.51-.05-.1-.03-.19-.1-.27-.19-.14-.15-.21-.38-.21-.66,0-.31.08-.55.24-.73s.38-.27.66-.27c.17,0,.35.04.52.13v1.76h-.43ZM61.91,8.11c-.06.07-.1.14-.1.23s.03.16.1.23c.07.07.14.1.22.1.09,0,.17-.03.23-.1.07-.06.1-.14.1-.23s-.03-.17-.1-.23c-.06-.06-.14-.09-.23-.09-.09,0-.16.03-.22.1h0ZM61.86,11.96h.55v-2.78h-.55v2.78h0Z"/>
  <path class="cls-1" d="M38.8,5.28h.61v-1.97h1.65v-.54h-1.65v-1.18h1.65v-.54h-2.25v4.23h0ZM41.8,2.9c-.28.27-.43.61-.43,1.02s.14.74.42,1.01c.28.27.63.4,1.05.4s.79-.13,1.08-.4c.28-.27.43-.6.43-1s-.14-.76-.42-1.03c-.28-.27-.63-.41-1.06-.41-.43,0-.78.14-1.07.41h0ZM43.52,3.25c.18.17.27.39.27.66s-.09.49-.26.66c-.17.17-.39.26-.66.26s-.5-.09-.67-.25c-.17-.17-.26-.39-.26-.65s.09-.49.26-.66c.17-.17.39-.26.65-.26.27,0,.5.09.68.26h0ZM44.94,2.5v2.78h.56v-1.99c.18-.26.4-.39.66-.39.2,0,.35.06.44.18.09.12.13.33.13.61v1.59h.55v-1.59c0-.34-.04-.59-.12-.74-.08-.16-.19-.28-.34-.37-.15-.09-.31-.14-.48-.14-.31,0-.59.14-.84.41v-.35h-.56ZM49.91,2.56c-.22-.08-.42-.12-.61-.12-.4,0-.73.13-.98.4-.26.26-.39.6-.39,1.01,0,.44.12.79.37,1.05.25.26.57.39.98.39h1.18V1.05h-.55v1.5h0ZM49.49,4.81c-.25,0-.42-.02-.51-.05s-.18-.1-.27-.19c-.14-.15-.21-.38-.21-.66,0-.3.08-.55.24-.73s.38-.27.66-.27c.18,0,.35.04.52.13v1.76h-.43ZM52.95,3.13c-.01-.08-.04-.17-.09-.25-.05-.08-.1-.15-.16-.2-.18-.16-.42-.24-.72-.24-.4,0-.71.13-.92.38v.6c.28-.31.58-.47.88-.47.34,0,.5.17.5.5v.15l-.71.24c-.23.08-.41.19-.54.33-.13.14-.19.29-.19.47,0,.19.06.35.19.48.13.13.29.19.48.19.26,0,.51-.09.75-.27.04.19.18.28.42.28.08,0,.16-.01.24-.04.08-.03.18-.08.3-.16v-.34c-.14.1-.24.15-.31.15s-.1-.05-.1-.14v-1.18c0-.23,0-.39-.02-.48h0ZM51.94,4.95c-.12,0-.21-.04-.29-.11-.07-.07-.11-.17-.11-.28s.04-.21.12-.28c.08-.08.21-.15.4-.23l.37-.14v.83c-.15.14-.31.21-.49.21h0ZM53.6,3.01h1.4l-1.46,2.27h2.44v-.51h-1.47l1.47-2.27h-2.38v.52h0ZM56.51,1.43c-.06.07-.1.14-.1.23s.03.16.1.23c.06.07.14.1.22.1.09,0,.17-.03.23-.1.06-.07.1-.14.1-.23s-.03-.17-.1-.23c-.07-.06-.14-.09-.23-.09-.09,0-.16.03-.22.1h0ZM56.46,5.28h.55v-2.78h-.55v2.78h0ZM58.07,2.9c-.28.27-.43.61-.43,1.02s.14.74.42,1.01c.28.27.63.4,1.05.4s.79-.13,1.07-.4c.28-.27.43-.6.43-1s-.14-.76-.42-1.03c-.28-.27-.63-.41-1.06-.41-.43,0-.78.14-1.07.41h0ZM59.78,3.25c.18.17.27.39.27.66s-.09.49-.26.66c-.17.17-.39.26-.66.26s-.5-.09-.67-.25c-.17-.17-.26-.39-.26-.65s.09-.49.25-.66c.17-.17.39-.26.65-.26.27,0,.5.09.68.26h0ZM61.21,2.5v2.78h.56v-1.99c.18-.26.4-.39.66-.39.2,0,.35.06.44.18.09.12.13.33.13.61v1.59h.55v-1.59c0-.34-.04-.59-.12-.74-.08-.16-.19-.28-.34-.37-.15-.09-.31-.14-.48-.14-.31,0-.59.14-.84.41v-.35h-.57ZM66.7,3.87c0-.43-.11-.78-.33-1.04-.22-.26-.52-.39-.88-.39s-.7.13-.93.4c-.24.27-.36.61-.36,1.03,0,.28.06.53.17.75.11.22.27.39.46.51.19.13.44.19.74.19.22,0,.42-.02.59-.07.17-.05.33-.13.5-.24v-.54c-.31.23-.64.34-1,.34-.26,0-.47-.08-.64-.24-.16-.16-.25-.37-.27-.64h1.96v-.07h0ZM65,3.1c.13-.12.29-.18.49-.18s.36.06.47.18c.12.12.18.29.2.51h-1.4c.04-.22.12-.39.24-.51h0Z"/>
  <polygon class="cls-2" points="1 1 1 32.17 32.17 32.17 32.17 1 1 1"/>
  <path class="cls-1" d="M15,12.73c-1.11.53-1.79.85-2.8.85-1.61,0-2.75-.99-2.75-2.37s1.16-2.35,2.8-2.35c.95,0,1.81.32,2.66.79v-1.72c-.76-.45-1.72-.68-2.8-.68-2.96,0-4.65,1.93-4.65,3.99s1.5,3.94,4.5,3.94c1.14,0,1.96-.22,3.04-.77v-1.69h0Z"/>
  <polygon class="cls-1" points="14.9 24.4 10.47 24.4 10.47 22.54 14.65 22.54 14.65 21.13 10.47 21.13 10.47 19.51 14.82 19.51 14.82 18.09 8.55 18.09 8.55 25.82 14.9 25.82 14.9 24.4"/>
  <path class="cls-1" d="M18.02,7.35v7.73h3.2c3.08,0,4.49-1.63,4.49-3.86s-1.45-3.88-4.27-3.88h-3.41ZM19.95,8.77h1.24c1.83,0,2.54,1.12,2.54,2.45,0,1.13-.58,2.45-2.52,2.45h-1.26v-4.9h0Z"/>
  <path class="cls-1" d="M25.14,23.46c-1.11.53-1.79.85-2.8.85-1.61,0-2.75-.99-2.75-2.37s1.16-2.35,2.8-2.35c.95,0,1.81.32,2.66.79v-1.72c-.76-.45-1.72-.68-2.8-.68-2.96,0-4.65,1.93-4.65,3.99s1.5,3.95,4.5,3.95c1.14,0,1.96-.22,3.04-.77v-1.69h0Z"/>
</svg>